<svg width="135" height="28" viewBox="0 0 135 28" fill="none" xmlns="http://www.w3.org/2000/svg">
<path d="M113.476 27.24V0.23999H117.451L130.744 20.3025V0.23999H134.719V27.24H130.744L117.451 7.15874V27.24H113.476Z" fill="white"/>
<path d="M91.7227 27.24V0.23999H108.973V3.93374H95.6414V11.5087H106.723V15.2025H95.6414V23.5462H108.973V27.24H91.7227Z" fill="white"/>
<path d="M82.1733 27.24V0.23999H86.0921V27.24H82.1733Z" fill="white"/>
<path d="M49.9014 27.24V0.23999H53.4451L63.2326 20.5462L72.9639 0.23999H76.5451V27.2212H72.8326V8.75249L64.1139 27.24H62.3326L53.5951 8.75249V27.24H49.9014Z" fill="white"/>
<path d="M23.3438 27.24L32.1188 0.23999H37.7625L46.5375 27.24H42.4688L34.3875 2.60249H35.4L27.4125 27.24H23.3438ZM27.9 21.1462V17.4712H42V21.1462H27.9Z" fill="white"/>
<path d="M0.0600586 27.24V0.23999H8.51631C8.76631 0.23999 9.22881 0.246241 9.90381 0.258741C10.5913 0.27124 11.2476 0.32124 11.8726 0.408739C13.9851 0.671239 15.7601 1.42749 17.1976 2.67749C18.6476 3.92749 19.7413 5.51499 20.4788 7.43999C21.2163 9.35249 21.5851 11.4525 21.5851 13.74C21.5851 16.04 21.2163 18.1525 20.4788 20.0775C19.7413 21.99 18.6476 23.5712 17.1976 24.8212C15.7601 26.0587 13.9851 26.8087 11.8726 27.0712C11.2476 27.1587 10.5913 27.2087 9.90381 27.2212C9.22881 27.2337 8.76631 27.24 8.51631 27.24H0.0600586ZM4.07256 23.5087H8.51631C8.94131 23.5087 9.44756 23.4962 10.0351 23.4712C10.6226 23.4462 11.1413 23.3962 11.5913 23.3212C12.9663 23.0587 14.0788 22.465 14.9288 21.54C15.7913 20.6025 16.4226 19.4525 16.8226 18.09C17.2226 16.7275 17.4226 15.2775 17.4226 13.74C17.4226 12.1525 17.2163 10.6837 16.8038 9.33374C16.3913 7.97124 15.7538 6.83374 14.8913 5.92124C14.0413 4.99624 12.9413 4.40874 11.5913 4.15874C11.1413 4.07124 10.6163 4.02124 10.0163 4.00874C9.42881 3.98374 8.92881 3.97124 8.51631 3.97124H4.07256V23.5087Z" fill="white"/>
</svg>
