<svg width="236" height="40" viewBox="0 0 236 40" fill="none" xmlns="http://www.w3.org/2000/svg">
<g clip-path="url(#clip0_83_2079)">
<mask id="mask0_83_2079" style="mask-type:luminance" maskUnits="userSpaceOnUse" x="0" y="0" width="40" height="40">
<path d="M40 0H0V40H40V0Z" fill="white"/>
</mask>
<g mask="url(#mask0_83_2079)">
<path fill-rule="evenodd" clip-rule="evenodd" d="M37.7882 20C38.5538 20 39.2954 19.8972 40 19.7047C39.4398 19.5865 38.859 19.5244 38.2638 19.5244H28.371C26.737 19.5244 25.2122 19.0562 23.9238 18.2467C24.2054 16.5979 24.9826 15.0173 26.2554 13.7446L32.5782 7.42188C33.1196 6.88048 33.5712 6.28338 33.9334 5.64904C33.4536 5.96158 32.999 6.32832 32.5782 6.74926L25.5828 13.7446C24.4274 14.9 23.0182 15.647 21.5348 15.9857C20.568 14.6207 20 12.9534 20 11.1535V2.21186C20 1.44621 19.8972 0.70458 19.7047 0C19.5865 0.560142 19.5244 1.14093 19.5244 1.73624V11.6291C19.5244 13.2631 19.0562 14.7878 18.2467 16.0762C16.5979 15.7945 15.0173 15.0173 13.7446 13.7446L7.42188 7.42188C6.88048 6.88048 6.28338 6.42874 5.64904 6.06668C5.96158 6.5463 6.32832 7.00094 6.74926 7.42188L13.7446 14.4172C14.9 15.5726 15.647 16.9818 15.9857 18.4653C14.6207 19.4319 12.9534 20 11.1535 20H2.21186C1.44621 20 0.704578 20.1028 0 20.2954C0.560146 20.4134 1.14094 20.4756 1.73624 20.4756H11.6291C13.2631 20.4756 14.7878 20.9438 16.0762 21.7534C15.7945 23.402 15.0173 24.9826 13.7446 26.2554L7.42188 32.5782C6.8805 33.1196 6.42876 33.7166 6.0667 34.351C6.54632 34.0384 7.00094 33.6716 7.42188 33.2508L14.4172 26.2554C15.5726 25.1 16.9818 24.353 18.4653 24.0142C19.4319 25.3794 20 27.0466 20 28.8466V37.7882C20 38.5538 20.1028 39.2954 20.2954 40C20.4134 39.4398 20.4756 38.859 20.4756 38.2638V28.3708C20.4756 26.7368 20.9438 25.2122 21.7534 23.9238C23.402 24.2054 24.9826 24.9826 26.2554 26.2554L32.5782 32.5782C33.1196 33.1196 33.7166 33.5712 34.351 33.9334C34.0384 33.4536 33.6716 32.999 33.2508 32.5782L26.2554 25.5828C25.1 24.4274 24.353 23.0182 24.0144 21.5348C25.3794 20.568 27.0466 20 28.8466 20H37.7882Z" fill="#AFA1F7"/>
</g>
</g>
<path d="M51.26 26.5V13.54H59.36V14.809H52.583V19.291H58.28V20.56H52.583V25.231H59.36V26.5H51.26ZM64.8196 26.5L60.3556 13.54H61.7326L65.6836 24.997L69.6616 13.54H71.0386L66.5746 26.5H64.8196ZM72.3889 26.5V13.54H80.4889V14.809H73.7119V19.291H79.4089V20.56H73.7119V25.231H80.4889V26.5H72.3889ZM82.6545 26.5V13.54H83.9865L91.1235 24.16V13.54H92.4555V26.5H91.1235L83.9865 15.871V26.5H82.6545ZM98.4238 26.5V14.809H93.8968V13.54H104.274V14.809H99.7468V26.5H98.4238ZM108.776 26.5V13.54H113.78C113.906 13.54 114.047 13.546 114.203 13.558C114.365 13.564 114.527 13.582 114.689 13.612C115.367 13.714 115.94 13.951 116.408 14.323C116.882 14.689 117.239 15.151 117.479 15.709C117.725 16.267 117.848 16.885 117.848 17.563C117.848 18.235 117.725 18.85 117.479 19.408C117.233 19.966 116.873 20.431 116.399 20.803C115.931 21.169 115.361 21.403 114.689 21.505C114.527 21.529 114.365 21.547 114.203 21.559C114.047 21.571 113.906 21.577 113.78 21.577H110.099V26.5H108.776ZM110.099 20.317H113.744C113.852 20.317 113.978 20.311 114.122 20.299C114.266 20.287 114.407 20.266 114.545 20.236C114.989 20.14 115.352 19.957 115.634 19.687C115.922 19.417 116.135 19.096 116.273 18.724C116.417 18.352 116.489 17.965 116.489 17.563C116.489 17.161 116.417 16.774 116.273 16.402C116.135 16.024 115.922 15.7 115.634 15.43C115.352 15.16 114.989 14.977 114.545 14.881C114.407 14.851 114.266 14.833 114.122 14.827C113.978 14.815 113.852 14.809 113.744 14.809H110.099V20.317ZM119.639 26.5V13.54H120.962V19.381H128.126V13.54H129.44V26.5H128.126V20.65H120.962V26.5H119.639ZM137.208 26.77C135.918 26.77 134.829 26.485 133.941 25.915C133.053 25.339 132.381 24.544 131.925 23.53C131.469 22.516 131.241 21.346 131.241 20.02C131.241 18.694 131.469 17.524 131.925 16.51C132.381 15.496 133.053 14.704 133.941 14.134C134.829 13.558 135.918 13.27 137.208 13.27C138.504 13.27 139.593 13.558 140.475 14.134C141.363 14.704 142.035 15.496 142.491 16.51C142.953 17.524 143.184 18.694 143.184 20.02C143.184 21.346 142.953 22.516 142.491 23.53C142.035 24.544 141.363 25.339 140.475 25.915C139.593 26.485 138.504 26.77 137.208 26.77ZM137.208 25.501C138.222 25.501 139.068 25.27 139.746 24.808C140.424 24.346 140.931 23.704 141.267 22.882C141.609 22.054 141.78 21.1 141.78 20.02C141.78 18.94 141.609 17.989 141.267 17.167C140.931 16.345 140.424 15.703 139.746 15.241C139.068 14.779 138.222 14.545 137.208 14.539C136.194 14.539 135.351 14.77 134.679 15.232C134.007 15.694 133.5 16.339 133.158 17.167C132.822 17.989 132.651 18.94 132.645 20.02C132.639 21.1 132.804 22.051 133.14 22.873C133.482 23.689 133.992 24.331 134.67 24.799C135.348 25.261 136.194 25.495 137.208 25.501ZM148.082 26.5V14.809H143.555V13.54H153.932V14.809H149.405V26.5H148.082ZM160.622 26.77C159.332 26.77 158.243 26.485 157.355 25.915C156.467 25.339 155.795 24.544 155.339 23.53C154.883 22.516 154.655 21.346 154.655 20.02C154.655 18.694 154.883 17.524 155.339 16.51C155.795 15.496 156.467 14.704 157.355 14.134C158.243 13.558 159.332 13.27 160.622 13.27C161.918 13.27 163.007 13.558 163.889 14.134C164.777 14.704 165.449 15.496 165.905 16.51C166.367 17.524 166.598 18.694 166.598 20.02C166.598 21.346 166.367 22.516 165.905 23.53C165.449 24.544 164.777 25.339 163.889 25.915C163.007 26.485 161.918 26.77 160.622 26.77ZM160.622 25.501C161.636 25.501 162.482 25.27 163.16 24.808C163.838 24.346 164.345 23.704 164.681 22.882C165.023 22.054 165.194 21.1 165.194 20.02C165.194 18.94 165.023 17.989 164.681 17.167C164.345 16.345 163.838 15.703 163.16 15.241C162.482 14.779 161.636 14.545 160.622 14.539C159.608 14.539 158.765 14.77 158.093 15.232C157.421 15.694 156.914 16.339 156.572 17.167C156.236 17.989 156.065 18.94 156.059 20.02C156.053 21.1 156.218 22.051 156.554 22.873C156.896 23.689 157.406 24.331 158.084 24.799C158.762 25.261 159.608 25.495 160.622 25.501ZM173.594 26.77C172.682 26.77 171.86 26.611 171.128 26.293C170.396 25.975 169.772 25.522 169.256 24.934C168.746 24.346 168.356 23.638 168.086 22.81C167.816 21.976 167.681 21.046 167.681 20.02C167.681 18.664 167.915 17.482 168.383 16.474C168.857 15.46 169.535 14.674 170.417 14.116C171.299 13.558 172.358 13.279 173.594 13.279C174.974 13.279 176.096 13.603 176.96 14.251C177.83 14.893 178.436 15.757 178.778 16.843L177.446 17.167C177.164 16.375 176.699 15.742 176.051 15.268C175.409 14.794 174.608 14.557 173.648 14.557C172.634 14.551 171.791 14.779 171.119 15.241C170.447 15.697 169.94 16.339 169.598 17.167C169.262 17.989 169.091 18.94 169.085 20.02C169.079 21.1 169.244 22.051 169.58 22.873C169.922 23.689 170.432 24.331 171.11 24.799C171.788 25.261 172.634 25.495 173.648 25.501C174.578 25.501 175.346 25.321 175.952 24.961C176.558 24.601 177.017 24.085 177.329 23.413C177.647 22.741 177.827 21.946 177.869 21.028H174.881V19.894H179.255C179.273 20.032 179.282 20.179 179.282 20.335C179.288 20.485 179.291 20.593 179.291 20.659C179.291 21.829 179.081 22.876 178.661 23.8C178.241 24.718 177.608 25.444 176.762 25.978C175.922 26.506 174.866 26.77 173.594 26.77ZM181.092 26.5V13.54H186.096C186.222 13.54 186.363 13.546 186.519 13.558C186.681 13.564 186.843 13.582 187.005 13.612C187.683 13.714 188.256 13.951 188.724 14.323C189.198 14.689 189.555 15.151 189.795 15.709C190.041 16.267 190.164 16.885 190.164 17.563C190.164 18.541 189.906 19.39 189.39 20.11C188.874 20.83 188.136 21.283 187.176 21.469L186.717 21.577H182.415V26.5H181.092ZM188.94 26.5L186.384 21.226L187.653 20.74L190.461 26.5H188.94ZM182.415 20.317H186.06C186.168 20.317 186.294 20.311 186.438 20.299C186.582 20.287 186.723 20.266 186.861 20.236C187.305 20.14 187.668 19.957 187.95 19.687C188.238 19.417 188.451 19.096 188.589 18.724C188.733 18.352 188.805 17.965 188.805 17.563C188.805 17.161 188.733 16.774 188.589 16.402C188.451 16.024 188.238 15.7 187.95 15.43C187.668 15.16 187.305 14.977 186.861 14.881C186.723 14.851 186.582 14.833 186.438 14.827C186.294 14.815 186.168 14.809 186.06 14.809H182.415V20.317ZM191.548 26.5L196.012 13.54H197.767L202.231 26.5H200.854L196.615 14.278H197.137L192.925 26.5H191.548ZM193.537 23.359V22.117H200.232V23.359H193.537ZM203.856 26.5V13.54H208.86C208.986 13.54 209.127 13.546 209.283 13.558C209.445 13.564 209.607 13.582 209.769 13.612C210.447 13.714 211.02 13.951 211.488 14.323C211.962 14.689 212.319 15.151 212.559 15.709C212.805 16.267 212.928 16.885 212.928 17.563C212.928 18.235 212.805 18.85 212.559 19.408C212.313 19.966 211.953 20.431 211.479 20.803C211.011 21.169 210.441 21.403 209.769 21.505C209.607 21.529 209.445 21.547 209.283 21.559C209.127 21.571 208.986 21.577 208.86 21.577H205.179V26.5H203.856ZM205.179 20.317H208.824C208.932 20.317 209.058 20.311 209.202 20.299C209.346 20.287 209.487 20.266 209.625 20.236C210.069 20.14 210.432 19.957 210.714 19.687C211.002 19.417 211.215 19.096 211.353 18.724C211.497 18.352 211.569 17.965 211.569 17.563C211.569 17.161 211.497 16.774 211.353 16.402C211.215 16.024 211.002 15.7 210.714 15.43C210.432 15.16 210.069 14.977 209.625 14.881C209.487 14.851 209.346 14.833 209.202 14.827C209.058 14.815 208.932 14.809 208.824 14.809H205.179V20.317ZM214.719 26.5V13.54H216.042V19.381H223.206V13.54H224.52V26.5H223.206V20.65H216.042V26.5H214.719ZM230.128 26.5V21.073L225.781 13.54H227.311L230.794 19.561L234.259 13.54H235.789L231.46 21.073V26.5H230.128Z" fill="#D7D0FB"/>
<defs>
<clipPath id="clip0_83_2079">
<rect width="40" height="40" fill="white"/>
</clipPath>
</defs>
</svg>
